<?xml version="1.0" encoding="UTF-8"?>
<svg width="188px" height="35px" viewBox="0 0 188 35" version="1.1" xmlns="http://www.w3.org/2000/svg" xmlns:xlink="http://www.w3.org/1999/xlink">
    <!-- Generator: Sketch 47.1 (45422) - http://www.bohemiancoding.com/sketch -->
    <title>Page 1</title>
    <desc>Created with Sketch.</desc>
    <defs>
        <polygon id="path-1" points="151.991705 23.4458733 151.991705 0.329206667 0.00654642857 0.329206667 0.00654642857 23.4458733 151.991705 23.4458733"></polygon>
        <polygon id="path-3" points="31.4757741 0.4066 0 0.4066 0 37.5777778 187.661348 37.5777778 187.661348 0.4066 31.4757741 0.4066 31.4757741 37.5777778 4.19642857e-05 37.5777778 4.19642857e-05 0.406177778 31.4757741 0.406177778"></polygon>
    </defs>
    <g id="Symbols" stroke="none" stroke-width="1" fill="none" fill-rule="evenodd">
        <g id="Topbar" transform="translate(-19.000000, -18.000000)">
            <g id="Page-1" transform="translate(19.000000, 16.000000)">
                <g id="Group-3" transform="translate(35.669643, 4.238013)">
                    <mask id="mask-2" fill="white">
                        <use xlink:href="#path-1"></use>
                    </mask>
                    <g id="Clip-2"></g>
                    <path d="M140.851279,22.9387844 L145.004904,22.9387844 L145.004904,4.54087333 L151.991957,4.54087333 L151.991957,0.740873333 L133.864225,0.740873333 L133.864225,4.54087333 L140.851279,4.54087333 L140.851279,22.9387844 Z M69.3932339,22.9387844 L73.5472786,22.9387844 L73.5472786,13.0380956 L82.8675464,22.9387844 L87.9981,22.9387844 L87.9981,22.6850289 L77.3912071,11.4910733 L87.1797964,0.867962222 L87.1797964,0.740873333 L82.0186089,0.740873333 L73.5472786,10.2366511 L73.5472786,0.740873333 L69.3932339,0.740873333 L69.3932339,22.9387844 Z M127.624136,0.803784444 L127.624136,13.5016956 C127.624136,17.2991622 125.672796,19.6133622 122.241796,19.6133622 C118.811636,19.6133622 116.545564,17.4916956 116.545564,13.5016956 L116.545564,0.803784444 L112.423832,0.803784444 L112.423832,13.5016956 C112.423832,20.17914 116.923662,23.4142067 122.211163,23.4142067 C127.750029,23.4142067 131.747127,20.0571178 131.747127,13.5016956 L131.747127,0.803784444 L127.624136,0.803784444 Z M98.7417964,4.12920667 C103.934877,4.12920667 106.011689,8.31131778 105.949582,12.0450289 C105.888734,15.6850067 103.934877,19.6133622 98.7417964,19.6133622 C93.5487161,19.6133622 91.5948589,15.7170956 91.5033768,12.0771178 C91.4102161,8.34256222 93.5487161,4.12920667 98.7417964,4.12920667 L98.7417964,4.12920667 Z M98.7417964,0.329206667 C91.1261179,0.329206667 87.4114393,6.18711778 87.4114393,12.0133622 C87.4114393,17.8404511 91.0006446,23.4458733 98.7417964,23.4458733 C106.484627,23.4458733 109.980252,17.7120956 110.04068,11.98254 C110.102368,6.18965111 106.326841,0.329206667 98.7417964,0.329206667 L98.7417964,0.329206667 Z M55.9881625,4.12920667 C61.1804036,4.12920667 63.2580554,8.31005111 63.1942696,12.0450289 C63.1325821,15.6866956 61.1804036,19.6133622 55.9881625,19.6133622 C50.7946625,19.6133622 48.8420643,15.7183622 48.7493232,12.0771178 C48.6540643,8.34087333 50.7946625,4.12920667 55.9881625,4.12920667 L55.9881625,4.12920667 Z M55.9881625,0.329206667 C48.3716446,0.329206667 44.6578054,6.18711778 44.6578054,12.0133622 C44.6578054,17.8404511 48.2457518,23.4458733 55.9881625,23.4458733 C63.7305732,23.4458733 67.2245196,17.7137844 67.2866268,11.98254 C67.3499929,6.18796222 63.5727875,0.329206667 55.9881625,0.329206667 L55.9881625,0.329206667 Z M31.6379661,4.12920667 C36.8310464,4.12920667 38.9082786,8.31005111 38.8449125,12.0450289 C38.783225,15.6866956 36.8310464,19.6133622 31.6379661,19.6133622 C26.4453054,19.6133622 24.4918679,15.7175178 24.3995464,12.0771178 C24.3042875,8.34087333 26.4453054,4.12920667 31.6379661,4.12920667 L31.6379661,4.12920667 Z M31.6379661,0.329206667 C24.0218679,0.329206667 20.3076089,6.18711778 20.3076089,12.0133622 C20.3076089,17.8404511 23.895975,23.4458733 31.6379661,23.4458733 C39.3799571,23.4458733 42.8743232,17.7137844 42.9364304,11.98254 C42.9997964,6.18796222 39.2230107,0.329206667 31.6379661,0.329206667 L31.6379661,0.329206667 Z M10.4867071,4.63629556 C13.0981446,4.63629556 14.2639125,6.41469556 14.2639125,8.19858444 C14.2639125,9.98205111 13.1296179,11.7600289 10.4867071,11.7600289 L4.16101071,11.7600289 L4.16101071,4.63629556 L10.4867071,4.63629556 Z M19.5199393,22.6533622 L12.8476179,15.0854511 C17.0327161,14.2308733 18.4183768,11.1587844 18.4183768,8.10358444 C18.4183768,4.25587333 15.6797875,0.740873333 10.4867071,0.740873333 L0.00654642857,0.740873333 L0.00654642857,22.9387844 L4.16101071,22.9387844 L4.16101071,15.5287844 L8.15810893,15.5287844 L14.578225,22.9387844 L19.5199393,22.9387844 L19.5199393,22.6533622 Z" id="Fill-1" fill="#FFFFFF" mask="url(#mask-2)"></path>
                </g>
                <g id="Group-6" transform="translate(0.000000, 0.015791)">
                    <mask id="mask-4" fill="white">
                        <use xlink:href="#path-3"></use>
                    </mask>
                    <g id="Clip-5"></g>
                    <path d="M16.8902473,28.0883333 C16.7316223,28.3518 16.478158,28.9505111 16.478158,28.9505111 L14.9309348,28.9505111 C14.9309348,28.9505111 14.5738187,28.0165556 14.3358812,27.7290222 C14.0979437,27.4419111 13.5028902,27.0348889 13.5028902,27.0348889 C13.5028902,27.0348889 13.8835062,26.7950667 14.0744437,26.6 C14.264542,26.4045111 14.3358812,25.9096667 14.3358812,25.9096667 C14.3358812,25.9096667 14.5826312,26.3251333 14.8444884,26.6126667 C15.1063455,26.9002 15.737908,28.2082444 15.737908,28.2082444 C15.737908,28.2082444 16.3350598,27.0108222 16.4303187,26.7034444 C16.5255777,26.3956444 17.0014527,25.9096667 17.0014527,25.9096667 C17.0014527,25.9096667 17.1206312,26.0768667 17.2633098,26.4391333 C17.4059884,26.8005556 17.8545866,27.1611333 17.8545866,27.1611333 C17.8545866,27.1611333 17.0488723,27.8248667 16.8902473,28.0883333 L16.8902473,28.0883333 Z M29.1215777,22.9047111 C28.7770509,24.0041778 27.8681045,24.7152 26.6003634,24.7152 L22.5025509,24.7152 C23.8021848,22.6201333 24.7035777,20.0851111 24.7035777,17.7160222 C24.7035777,15.5757778 24.062783,13.5698 22.429533,12.1338222 L22.3758188,12.0869556 L25.5839884,9.99948889 C25.0661491,8.57702222 22.9167384,6.67364444 21.7144616,6.05086667 C21.5373723,5.68142222 21.3258723,5.33688889 21.0870955,5.04006667 L20.9368634,4.85302222 L21.0212116,4.6284 C21.4597384,3.45631111 20.6766848,1.61162222 19.9498634,0.406177778 C19.6540152,0.906511111 19.3266937,1.40895556 18.9028545,1.76995556 C18.0388098,2.50631111 16.8688455,2.55951111 15.7886848,2.50293333 L15.7651848,2.50166667 L15.737908,2.50166667 C12.1340152,2.50166667 9.18896161,5.4644 9.18896161,9.09086667 L9.18896161,12.008 L9.04628304,12.1338222 C7.41303304,13.5698 6.77223839,15.5757778 6.77223839,17.7160222 C6.77223839,20.0851111 7.67363125,22.6201333 8.97284554,24.7152 L4.87545268,24.7152 C3.60813125,24.7152 2.69876518,24.0041778 2.35465804,22.9047111 L4.19642857e-05,22.9047111 L4.19642857e-05,23.2040667 C4.19642857e-05,26.0485778 2.28331875,27.3008889 4.75753304,27.3008889 L10.0064259,27.3008889 L8.92164911,31.3196 C8.64468482,32.3472889 8.60985446,33.4864444 9.11384554,34.4508 C9.48900625,35.1685778 10.1281223,35.6997333 10.9136937,35.8964889 C11.4672027,36.0345556 12.0433723,35.9923333 12.5729616,35.7808 L12.9057384,35.6469556 L13.0874437,35.9585556 C13.1675955,36.0957778 13.2565598,36.2275111 13.3543366,36.3537556 C13.940158,37.1095333 14.8083991,37.5777778 15.768542,37.5777778 C16.7282652,37.5777778 17.5960866,37.1095333 18.1823277,36.3537556 C18.2792652,36.2287778 18.3673902,36.0978889 18.4471223,35.9615111 L18.6288277,35.6511778 L18.9611848,35.7841778 C19.4786045,35.9906444 20.0409259,36.0332889 20.5818455,35.8994444 C21.3640598,35.7060667 21.996042,35.1744889 22.3657473,34.4600889 C22.8668009,33.4927778 22.8281937,32.3481333 22.5508098,31.3200222 L21.4664527,27.3008889 L26.7187027,27.3008889 C29.192917,27.3008889 31.4757741,26.0485778 31.4757741,23.2040667 L31.4757741,22.9047111 L29.1215777,22.9047111 Z" id="Fill-4" fill="#54476E" mask="url(#mask-4)"></path>
                </g>
                <path d="M17.2116992,25.820709 C17.1205347,25.8589466 16.9483768,26.0415025 16.6952253,26.3683768 C16.4420739,26.6952511 16.1372215,27.2531789 15.780668,28.0421603 C15.3468619,27.2219636 15.0152798,26.6640358 14.7859218,26.3683768 C14.5565638,26.0727178 14.3595602,25.8901619 14.1949111,25.820709 C14.128367,26.2901723 14.0399048,26.5958321 13.9295243,26.7376885 C13.8191439,26.879545 13.6534517,27.0000634 13.4324479,27.0992437 C13.7514033,27.2947788 14.0348515,27.5209562 14.2827923,27.777776 C14.5307331,28.0345958 14.7420408,28.4256975 14.9167153,28.9510812 C15.9955499,28.938702 16.5349671,28.9325124 16.5349671,28.9325124 C16.5349671,28.9325124 16.5736283,28.6592673 16.9431954,28.0784128 C17.1895734,27.6911764 17.54914,27.3433184 18.021895,27.0348386 C17.7842028,26.9219387 17.5947927,26.7459191 17.4536647,26.5067799 C17.3125367,26.2676407 17.2318815,26.0389503 17.2116992,25.820709 Z" id="Fill-7" fill="#FFFFFF"></path>
                <path d="M9.1798401,25.2996707 C9.1798401,25.2996707 5.28761946,25.3642661 4.3623401,25.2996707 C3.43706073,25.2350754 2.9946584,24.974669 2.74664863,24.7934303 C2.47773308,24.5969142 2.00041449,23.8103633 1.84867938,23.3181818 L0.854545455,23.3181818 C0.854545455,23.3181818 0.866254991,23.8475998 1.15836688,24.6494485 C1.45047878,25.4512972 2.15019233,26.3104674 3.99976867,26.5173596 C5.84934501,26.7242518 9.5969651,26.5173596 9.5969651,26.5173596 C9.5969651,26.5173596 9.26544724,26.286404 9.1798401,25.9916929 C9.0946526,25.6965596 9.1798401,25.2996707 9.1798401,25.2996707 Z" id="Fill-9" fill="#FFFFFF"></path>
                <path d="M30.1162037,25.2996707 C30.1162037,25.2996707 26.2239831,25.3642661 25.2987037,25.2996707 C24.3734244,25.2350754 23.931022,24.974669 23.6830123,24.7934303 C23.4140967,24.5969142 22.9367781,23.8103633 22.785043,23.3181818 L21.7909091,23.3181818 C21.7909091,23.3181818 21.8026186,23.8475998 22.0947305,24.6494485 C22.3868424,25.4512972 23.086556,26.3104674 24.9361323,26.5173596 C26.7857086,26.7242518 30.5333287,26.5173596 30.5333287,26.5173596 C30.5333287,26.5173596 30.2018109,26.286404 30.1162037,25.9916929 C30.0310162,25.6965596 30.1162037,25.2996707 30.1162037,25.2996707 Z" id="Fill-9-Copy" fill="#FFFFFF" transform="translate(26.162119, 24.963747) scale(-1, 1) translate(-26.162119, -24.963747) "></path>
                <path d="M20.3618765,27.4380242 L19.7248586,27.4380242 C18.3257693,27.4380242 17.3835876,28.1984465 17.0470341,29.5993798 L14.4218129,29.5993798 C14.0848397,28.1984465 13.11968,27.4380242 11.7205908,27.4380242 L11.0806354,27.4380242 L9.93626161,31.6130022 C9.00843125,35.05158 12.3605384,36.18018 13.5523241,33.2676911 C13.3328509,37.6250244 18.2040652,37.6250244 17.9841723,33.2676911 C19.175958,36.18018 22.4638598,35.0507356 21.5364491,31.6130022 L20.3618765,27.4380242 Z" id="Fill-11" fill="#FFFFFF"></path>
                <path d="M16.5866205,9.76148688 C15.6851131,9.76148688 14.9545455,9.02642873 14.9545455,8.11938022 C14.9545455,7.21233171 15.6851131,6.47727355 16.5866205,6.47727355 C17.4881278,6.47727355 18.2190422,7.21233171 18.2190422,8.11938022 C18.2190422,9.02642873 17.4881278,9.76148688 16.5866205,9.76148688 M20.7467652,6.67418198 C20.4253188,6.02058198 19.9746223,5.48013754 19.4878366,5.26100421 C20.1311491,4.67115976 20.4647652,3.64473754 19.8294259,2.41818198 C19.1668098,3.93733754 15.737908,3.76464865 15.737908,3.76464865 C12.7139616,3.76464865 10.240167,6.25364865 10.240167,9.29618198 L10.240167,11.5601375 L11.4802116,11.454582 C12.0295241,11.4081375 11.989658,11.6314931 11.6434527,11.8624486 C11.1759705,12.1550486 10.7080687,12.4480709 10.240167,12.7419375 C8.75001518,13.7831375 7.82302411,15.4517598 7.82302411,17.9209153 C7.82302411,19.8074042 8.47347054,21.8822042 9.48355089,23.7100042 C9.74205089,23.5326709 10.1142741,23.5339375 10.6287563,23.4524486 C10.9300598,23.4047375 11.1646402,23.1302931 11.6975866,23.1231153 C12.230533,23.1150931 12.4856759,23.4250042 12.7680955,23.4600486 C13.3732205,23.534782 13.7261402,23.4841153 13.9938723,23.7395598 C14.1747384,23.9130931 14.286783,24.233982 14.310283,24.4839375 C14.3245509,24.6308709 14.3346223,24.7866709 14.3417562,24.9509153 C14.3480509,25.0970042 14.3501491,24.970267 14.3501491,25.1201559 C14.7916134,25.3840448 15.1730688,25.7902225 15.502908,26.4113114 L15.737908,26.8538003 L15.972908,26.4113114 C16.3006491,25.7952892 16.6821045,25.3903781 17.1248277,25.1256448 C17.124408,24.974067 17.1273455,25.0986931 17.1340598,24.9509153 C17.1407741,24.7866709 17.1512652,24.6308709 17.1651134,24.4839375 C17.1886134,24.233982 17.3002384,23.9130931 17.4819438,23.7395598 C17.7492563,23.4841153 18.1025955,23.534782 18.7073009,23.4600486 C18.9901402,23.4250042 19.2448634,23.1150931 19.7778098,23.1231153 C20.3107563,23.1302931 20.5453366,23.4047375 20.8470598,23.4524486 C21.3611223,23.5339375 21.7333455,23.5326709 21.9922652,23.7100042 C23.0019259,21.8822042 23.6523723,19.8074042 23.6523723,17.9209153 C23.6523723,15.4517598 22.7253813,13.7831375 21.2352295,12.7419375 C19.462658,11.203782 19.4706313,8.38164865 20.7467652,6.67418198 Z" id="Fill-15" fill="#FFFFFF"></path>
                <path d="M23.0441,8.44075894 C22.4905911,7.93958116 21.8846268,7.50553671 21.2715286,7.16818116 C20.7864214,8.05738116 20.6131089,8.89887005 20.6340911,9.6352256 C20.6596893,10.5387812 20.9761,11.2802034 21.3617518,11.7484478 L24.4024839,9.97215894 C24.0176714,9.42031449 23.5531268,8.90224783 23.0441,8.44075894" id="Fill-25" fill="#FFFFFF"></path>
                <path d="M10.7271625,24.8108756 C10.7296804,24.6740756 10.7334571,24.5389644 10.7372339,24.4080756 C10.7376536,24.3924533 10.7372339,24.3755644 10.735975,24.3569867 C10.7284214,24.2434089 10.6826804,24.1446089 10.6121804,24.0740978 C10.547975,24.0103422 10.4623679,23.9702311 10.3671089,23.96812 C10.359975,23.9676978 10.3507429,23.96812 10.3394125,23.96812 L10.3394125,23.9685422 C10.2143589,23.9774089 10.0901446,24.0398978 9.9927875,24.13152 C9.89417143,24.2239867 9.82576964,24.3455867 9.81401964,24.4722533 C9.80143036,24.6031422 9.79219821,24.7264311 9.78632321,24.8429644 C9.78002857,24.9700533 9.77583214,25.0941867 9.77415357,25.2136756 C9.772475,25.3369644 9.772475,25.4606756 9.77583214,25.5848089 C9.77876964,25.7026089 9.78548393,25.8250533 9.795975,25.9534089 C9.80604643,26.0783867 9.87360893,26.19872 9.972225,26.2903422 C10.0704214,26.3828089 10.1975732,26.4444533 10.3255643,26.4537422 C10.3377339,26.4545867 10.3478054,26.4550089 10.3549393,26.4550089 C10.4510375,26.4528978 10.5370643,26.4132089 10.6016893,26.3494533 C10.6721893,26.2797867 10.7179304,26.1809867 10.7259036,26.0678311 C10.7271625,26.0484089 10.7275821,26.03152 10.7275821,26.0158978 C10.724225,25.8837422 10.7221268,25.7490533 10.7212875,25.6126756 C10.7204482,25.4788311 10.7208679,25.3454089 10.7221268,25.2115644 C10.7229661,25.0768756 10.7246446,24.9430311 10.7271625,24.8108756" id="Fill-33" fill="#FFFFFF"></path>
                <path d="M12.1598232,24.2298978 C12.1556268,24.1167422 12.0998143,24.0111867 12.0142071,23.93392 C11.9294393,23.8570756 11.8165554,23.8080978 11.6973768,23.8059867 C11.5807161,23.8072533 11.4711893,23.85412 11.3897786,23.9284311 C11.3054304,24.0056978 11.2508768,24.1104089 11.2475196,24.2235644 C11.2424839,24.3987867 11.2382875,24.5727422 11.2349304,24.74332 C11.2319929,24.9172756 11.2298946,25.0903867 11.2290554,25.2613867 C11.2282161,25.4340756 11.2282161,25.6076089 11.2298946,25.7798756 C11.2319929,25.9500311 11.2349304,26.12272 11.2408054,26.2970978 C11.2441625,26.4102533 11.299975,26.5153867 11.3851625,26.5930756 C11.4690911,26.6686533 11.5815554,26.7180533 11.699475,26.71932 C11.8173946,26.7180533 11.9286,26.6694978 12.0121089,26.59392 C12.0972964,26.5166533 12.1522696,26.41152 12.1564661,26.2979422 C12.1627607,26.1218756 12.1677964,25.9491867 12.1711536,25.7811422 C12.1749304,25.6076089 12.1770286,25.43492 12.1774482,25.26392 C12.1774482,25.0920756 12.1766089,24.9193867 12.1736714,24.7466978 C12.1707339,24.5773867 12.1661179,24.40512 12.1598232,24.2298978" id="Fill-35" fill="#FFFFFF"></path>
                <path d="M13.6109482,25.67964 C13.6176625,25.54664 13.6206,25.4161733 13.6210196,25.2886622 C13.6214393,25.1598844 13.6193411,25.0289956 13.6134661,24.89684 C13.6084304,24.7739733 13.5991982,24.6439289 13.5861893,24.5067067 C13.5736,24.3703289 13.5026804,24.2419733 13.4011268,24.1435956 C13.3020911,24.0477511 13.1761982,23.9831511 13.0515643,23.9755511 L13.0515643,23.9751289 C13.0406536,23.9747067 13.0310018,23.9742844 13.0238679,23.9747067 C12.9319661,23.97724 12.8488768,24.0181956 12.78635,24.0844844 C12.7150107,24.1592178 12.6696893,24.2656178 12.6612964,24.3880622 C12.6600375,24.4095956 12.6596179,24.4302844 12.6600375,24.4492844 C12.6646536,24.5886178 12.6680107,24.7300622 12.6701089,24.8736178 C12.6717875,25.01464 12.6726268,25.1556622 12.6722071,25.2975289 L12.6722071,25.2979511 C12.6713679,25.44024 12.6696893,25.5816844 12.6667518,25.7218622 C12.6642339,25.86584 12.6600375,26.0077067 12.6550018,26.1457733 C12.6541625,26.1664622 12.6550018,26.1896844 12.6566804,26.2141733 L12.6566804,26.2150178 C12.6659125,26.3340844 12.7112339,26.4371067 12.7808946,26.5101511 C12.8417429,26.5734844 12.9218946,26.6127511 13.0108589,26.6157067 C13.0192518,26.6161289 13.0301625,26.6157067 13.0435911,26.6148622 L13.0435911,26.6152844 C13.1669661,26.6034622 13.2924393,26.5367511 13.3923143,26.4387956 C13.4955464,26.3378844 13.5681446,26.2061511 13.5819929,26.0689289 C13.5950018,25.9414178 13.6046536,25.8113733 13.6109482,25.67964" id="Fill-37" fill="#FFFFFF"></path>
                <path d="M13.4013366,24.1437222 C13.3023009,24.0474556 13.1759884,23.9832778 13.0517741,23.9756778 L13.0517741,23.9752556 C13.0404438,23.9748333 13.0312116,23.9744111 13.023658,23.9748333 C12.9317563,23.9769444 12.848667,24.0183222 12.7861402,24.0841889 C12.7152205,24.1593444 12.6694795,24.2657444 12.6610866,24.3881889 C12.6598277,24.4097222 12.659408,24.4304111 12.6598277,24.4494111 C12.6648634,24.5887444 12.6682205,24.7301889 12.6698991,24.8737444 C12.671158,24.9628333 12.6719973,25.0523444 12.6719973,25.1422778 C12.7962116,25.3652111 12.964908,25.5020111 13.1512295,25.5020111 C13.3325152,25.5020111 13.4974348,25.3715444 13.6203902,25.1591667 C13.6199705,25.0721889 13.6174527,24.9843667 13.6136759,24.8965444 C13.6082205,24.7741 13.599408,24.6440556 13.5863991,24.5064111 C13.5733902,24.3704556 13.5024705,24.2416778 13.4013366,24.1437222 L13.4013366,24.1437222 Z M10.7223366,25.1925222 C10.6014795,25.3854778 10.444533,25.5020111 10.2728991,25.5020111 C10.0777652,25.5020111 9.90151518,25.3512778 9.77604196,25.1093444 C9.77814018,25.0223667 9.78191696,24.9332778 9.78653304,24.8429222 C9.79240804,24.7268111 9.80164018,24.6031 9.81422946,24.4722111 C9.82555982,24.3459667 9.89438125,24.2239444 9.99299732,24.1314778 C10.0899348,24.0398556 10.2145688,23.9773667 10.3396223,23.9685 L10.3396223,23.9680778 C10.3501134,23.9680778 10.3597652,23.9676556 10.3668991,23.9680778 C10.462158,23.9701889 10.5481848,24.0103 10.6123902,24.0740556 C10.6824705,24.1445667 10.7282116,24.2433667 10.7361848,24.3569444 C10.7370241,24.3755222 10.7374438,24.3924111 10.7370241,24.4080333 C10.7332473,24.5393444 10.7294705,24.6740333 10.7269527,24.8108333 C10.7248545,24.9370778 10.7231759,25.0645889 10.7223366,25.1925222 L10.7223366,25.1925222 Z M12.1768188,25.3694333 C12.0538634,25.5809667 11.8889438,25.7110111 11.7084973,25.7110111 C11.5217563,25.7110111 11.3526402,25.5733667 11.2288455,25.3500111 L11.2288455,25.2613444 C11.2296848,25.0903444 11.2322027,24.9172333 11.2351402,24.7432778 C11.2384973,24.5727 11.2422741,24.3987444 11.2477295,24.2235222 C11.250667,24.1103667 11.3052205,24.0056556 11.3895688,23.9283889 C11.4709795,23.8540778 11.5809259,23.8072111 11.6975866,23.8059444 C11.8163455,23.8080556 11.9292295,23.8570333 12.0139973,23.9338778 C12.1000241,24.0115667 12.1558366,24.1171222 12.160033,24.2298556 C12.1663277,24.4050778 12.1705241,24.5773444 12.1734616,24.7466556 C12.1763991,24.9193444 12.1772384,25.0920333 12.1772384,25.2638778 L12.1768188,25.3694333 Z" id="Fill-39" fill="#FFFFFF"></path>
                <path d="M18.0741857,24.1437222 C18.1732214,24.0474556 18.2995339,23.9832778 18.4237482,23.9756778 L18.4237482,23.9752556 C18.4350786,23.9748333 18.4443107,23.9744111 18.4514446,23.9748333 C18.5437661,23.9769444 18.6268554,24.0183222 18.6893821,24.0841889 C18.7603018,24.1593444 18.8060429,24.2657444 18.8144357,24.3881889 C18.8156946,24.4097222 18.8161143,24.4304111 18.8156946,24.4494111 C18.8106589,24.5887444 18.8073018,24.7301889 18.8056232,24.8737444 C18.803525,25.0147667 18.8026857,25.1553667 18.803525,25.2972333 L18.803525,25.2976556 C18.8043643,25.4399444 18.8060429,25.5813889 18.8085607,25.7215667 C18.8114982,25.8659667 18.8156946,26.0078333 18.8203107,26.1454778 C18.82115,26.1665889 18.8207304,26.1898111 18.8186321,26.2138778 L18.8186321,26.2147222 C18.8094,26.3337889 18.7640786,26.4372333 18.6948375,26.5098556 C18.6339893,26.5736111 18.5538375,26.6128778 18.4644536,26.6154111 C18.4564804,26.6158333 18.44515,26.6154111 18.4317214,26.6149889 L18.4317214,26.6154111 C18.3087661,26.6035889 18.1828732,26.5368778 18.0829982,26.4389222 C17.9801857,26.3375889 17.9075875,26.2062778 17.8933196,26.0690556 C17.8807304,25.9415444 17.8710786,25.8115 17.8643643,25.6797667 C17.8580696,25.5463444 17.8551321,25.4163 17.8547125,25.2887889 C17.8542929,25.1595889 17.8563911,25.0291222 17.8622661,24.8965444 C17.8673018,24.7741 17.8761143,24.6440556 17.8891232,24.5064111 C17.9021321,24.3704556 17.9730518,24.2416778 18.0741857,24.1437222 M21.1082036,23.9680778 C21.1157571,23.9676556 21.1249893,23.9680778 21.1359,23.9680778 L21.1359,23.9685 C21.2609536,23.9773667 21.3855875,24.0398556 21.482525,24.1314778 C21.5811411,24.2239444 21.6499625,24.3459667 21.6617125,24.4722111 C21.6738821,24.6031 21.6831143,24.7268111 21.6894089,24.8429222 C21.6957036,24.9700111 21.6999,25.0941444 21.7015786,25.2136333 C21.7032571,25.3369222 21.7028375,25.4606333 21.6994804,25.5847667 C21.6965429,25.7025667 21.6902482,25.8250111 21.6797571,25.9533667 C21.6692661,26.0783444 21.6017036,26.1986778 21.5035071,26.2903 C21.4048911,26.3827667 21.2777393,26.4444111 21.1501679,26.4537 C21.1375786,26.4545444 21.1279268,26.4549667 21.1207929,26.4549667 C21.0246946,26.4528556 20.9382482,26.4131667 20.8736232,26.3494111 C20.8035429,26.2797444 20.7578018,26.1809444 20.7494089,26.0677889 C20.74815,26.0483667 20.7477304,26.0314778 20.74815,26.0162778 C20.7515071,25.8837 20.7531857,25.7490111 20.7544446,25.6126333 C20.7548643,25.4787889 20.7544446,25.3453667 20.7536054,25.2115222 C20.7527661,25.0768333 20.7506679,24.9434111 20.7485696,24.8108333 C20.7460518,24.6740333 20.742275,24.5393444 20.7384982,24.4080333 C20.7380786,24.3924111 20.7380786,24.3755222 20.7393375,24.3569444 C20.7473107,24.2433667 20.7930518,24.1445667 20.8631321,24.0740556 C20.9273375,24.0103 21.0133643,23.9701889 21.1082036,23.9680778 M19.4611054,23.9338778 C19.5458732,23.8570333 19.6587571,23.8080556 19.7779357,23.8059444 C19.8945964,23.8072111 20.0041232,23.8540778 20.0855339,23.9283889 C20.1707214,24.0056556 20.2248554,24.1103667 20.2277929,24.2235222 C20.2328286,24.3987444 20.2374446,24.5727 20.2403821,24.7432778 C20.2433196,24.9172333 20.2458375,25.0903444 20.2466768,25.2613444 C20.2475161,25.4344556 20.2475161,25.6075667 20.2454179,25.7798333 C20.2437393,25.9499889 20.2403821,26.1226778 20.2345071,26.2974778 C20.23115,26.4102111 20.1757571,26.5153444 20.0905696,26.5930333 C20.0062214,26.6686111 19.8941768,26.7180111 19.7762571,26.7192778 C19.6583375,26.7180111 19.5471321,26.6694556 19.4636232,26.5938778 C19.3784357,26.5166111 19.3230429,26.4114778 19.3192661,26.2983222 C19.3129714,26.1222556 19.3079357,25.9491444 19.3045786,25.7811 C19.3008018,25.6075667 19.2982839,25.4348778 19.2982839,25.2638778 C19.2982839,25.0920333 19.2991232,24.9193444 19.3020607,24.7466556 C19.3045786,24.5773444 19.3091946,24.4050778 19.3154893,24.2298556 C19.3196857,24.1171222 19.3759179,24.0115667 19.4611054,23.9338778" id="Fill-41" fill="#FFFFFF"></path>
                <path d="M18.0741857,24.1437222 C18.1732214,24.0474556 18.2995339,23.9832778 18.4237482,23.9756778 L18.4237482,23.9752556 C18.4350786,23.9748333 18.4443107,23.9744111 18.4514446,23.9748333 C18.5437661,23.9769444 18.6268554,24.0183222 18.6893821,24.0841889 C18.7603018,24.1593444 18.8060429,24.2657444 18.8144357,24.3881889 C18.8156946,24.4097222 18.8161143,24.4304111 18.8156946,24.4494111 C18.8106589,24.5887444 18.8073018,24.7301889 18.8056232,24.8737444 C18.8043643,24.9628333 18.803525,25.0523444 18.803525,25.1422778 C18.6793107,25.3652111 18.5106143,25.5020111 18.3242929,25.5020111 C18.1430071,25.5020111 17.9780875,25.3715444 17.8551321,25.1591667 C17.8559714,25.0721889 17.8580696,24.9843667 17.8622661,24.8965444 C17.8673018,24.7741 17.8761143,24.6440556 17.8891232,24.5064111 C17.9021321,24.3704556 17.9730518,24.2416778 18.0741857,24.1437222 L18.0741857,24.1437222 Z M20.7531857,25.1925222 C20.8740429,25.3854778 21.0309893,25.5020111 21.2030429,25.5020111 C21.3977571,25.5020111 21.5740071,25.3512778 21.6994804,25.1093444 C21.6969625,25.0223667 21.694025,24.9332778 21.6894089,24.8429222 C21.6831143,24.7268111 21.6738821,24.6031 21.6617125,24.4722111 C21.6499625,24.3459667 21.5811411,24.2239444 21.482525,24.1314778 C21.3855875,24.0398556 21.2609536,23.9773667 21.1359,23.9685 L21.1359,23.9680778 C21.1249893,23.9680778 21.1157571,23.9676556 21.1082036,23.9680778 C21.0133643,23.9701889 20.9273375,24.0103 20.8631321,24.0740556 C20.7930518,24.1445667 20.7473107,24.2433667 20.7393375,24.3569444 C20.7380786,24.3755222 20.7380786,24.3924111 20.7384982,24.4080333 C20.742275,24.5393444 20.7460518,24.6740333 20.7485696,24.8108333 C20.7506679,24.9370778 20.7523464,25.0645889 20.7531857,25.1925222 L20.7531857,25.1925222 Z M19.2987036,25.3694333 C19.4212393,25.5809667 19.5861589,25.7110111 19.7674446,25.7110111 C19.9537661,25.7110111 20.1228821,25.5733667 20.2466768,25.3500111 L20.2466768,25.2613444 C20.2458375,25.0903444 20.2433196,24.9172333 20.2403821,24.7432778 C20.2374446,24.5727 20.2328286,24.3987444 20.2277929,24.2235222 C20.2248554,24.1103667 20.1707214,24.0056556 20.0855339,23.9283889 C20.0041232,23.8540778 19.8945964,23.8072111 19.7779357,23.8059444 C19.6587571,23.8080556 19.5458732,23.8570333 19.4611054,23.9338778 C19.3759179,24.0115667 19.3196857,24.1171222 19.3154893,24.2298556 C19.3091946,24.4050778 19.3045786,24.5773444 19.3020607,24.7466556 C19.2991232,24.9193444 19.2982839,25.0920333 19.2982839,25.2638778 L19.2987036,25.3694333 Z" id="Fill-43" fill="#FFFFFF"></path>
                <path d="M17.7236542,7.61550773 C17.7236542,7.90979662 17.486556,8.1487744 17.1936453,8.1487744 C16.9007346,8.1487744 16.6636364,7.90979662 16.6636364,7.61550773 C16.6636364,7.32079662 16.9007346,7.08181884 17.1936453,7.08181884 C17.486556,7.08181884 17.7236542,7.32079662 17.7236542,7.61550773" id="Fill-49" fill="#FFFFFF"></path>
            </g>
        </g>
    </g>
</svg>